<?xml version="1.0" encoding="UTF-8"?>
<!DOCTYPE svg PUBLIC "-//W3C//DTD SVG 1.1//EN" "http://www.w3.org/Graphics/SVG/1.1/DTD/svg11.dtd">
<!-- Creator: CorelDRAW -->
<svg xmlns="http://www.w3.org/2000/svg" xml:space="preserve" width="210mm" height="297mm" version="1.1" style="shape-rendering:geometricPrecision; text-rendering:geometricPrecision; image-rendering:optimizeQuality; fill-rule:evenodd; clip-rule:evenodd"
viewBox="0 0 21000 29700"
 xmlns:xlink="http://www.w3.org/1999/xlink"
 xmlns:xodm="http://www.corel.com/coreldraw/odm/2003">
 <defs>
  <style type="text/css">
   <![CDATA[
    .fil0 {fill:black}
   ]]>
  </style>
 </defs>
 <g id="Camada_x0020_1">
  <metadata id="CorelCorpID_0Corel-Layer"/>
  <path class="fil0" d="M-18542.29 13581.86c0,-121.62 26.1,-136.6 35.28,-246.94l2928.05 0 0 2681.1 -2963.33 0 0 -2434.16zm3209.16 2329.96c48.18,-104.96 166.26,-303.2 203.56,-377.05 124.95,59.89 172.34,93.24 245.02,129.17 -162.85,59.47 -296.72,167.53 -448.58,247.88zm-104.72 -142.74l0 -2242.5c83.85,44.37 119.3,82.05 211.66,125.84l2.4 1773.09c-21.98,46.75 -141.24,234.89 -214.06,343.57zm564.44 -2333.05l0 2086.1c-83.85,-44.37 -156.46,-82.67 -211.67,-105.83l-2.95 -1590.45c2.18,-110.56 -0.75,-164.92 -0.75,-164.92 36.26,-46.86 145.86,-164.74 215.37,-224.9zm-271.5 60.37c-100.71,-53.29 -176.73,-100.34 -269.11,-162.21 7.33,-88.09 192.71,-558.17 257.64,-634.27 43.02,55.98 238.93,540.71 227.71,564.62 -14.77,31.44 -146.89,150.55 -216.24,231.86zm-424.66 -302.59l-2902.16 0c163.34,-308.7 282.22,-706.47 282.22,-1128.89l2963.32 0c1.71,542.02 -328.89,1030.99 -343.38,1128.89zm-3113.83 246.94l0 2716.38 3139.71 0c190.48,0 663.55,-357.55 811.39,-423.33 0,-693.58 -3.74,-1388.18 0.24,-2081.62 2.44,-425.18 -68.19,-519.97 -192.32,-830.74 -94.1,-235.57 -160.7,-585.17 -160.7,-897.63l-3245.54 0c0,783.24 -352.78,1178.84 -352.78,1516.94z"/>
  <path class="fil0" d="M-17907.29 15239.91l1058.33 0c67.49,100.79 143.67,141.11 143.67,141.11 0,0 74.31,-45.18 138.55,-141.11l352.78 0c-18.45,221.71 -79.46,282.22 -317.5,282.22l-1058.33 0c-247.47,0 -289.07,-60.56 -317.5,-282.22zm1446.38 -141.11c31.6,-47.19 44.27,-71.55 88.45,-123.22 155.73,-182.11 229.05,-63.79 229.05,17.39 0,152.87 -160.4,105.83 -317.5,105.83zm-1530.73 -105.83c0,-75.37 59.8,-96.06 165.34,-106.32 0,0 377.51,0.48 659.84,0.48 91.35,0 127.07,85.34 211.67,211.67 -188.14,0 -376.37,-0.56 -564.49,0.05 -90.23,0.29 -308.21,-1.89 -308.21,-1.89 -93.19,-6.81 -164.15,-23.97 -164.15,-103.99zm1107.4 -105.84l352.78 0c-46.66,112.41 -103.13,180.65 -176.39,266.95 -103.57,-123.03 -121.6,-162.68 -176.39,-266.95zm-987.77 -282.22l1622.77 0c133.48,0 139.17,141.11 0,141.11l-1622.77 0c-133.5,0 -139.17,-141.11 0,-141.11zm811.38 -846.66c335.4,0 611.88,158.82 748.09,416.08 56.64,106.98 51.83,192.04 98.58,289.47l-1693.33 0c74.38,-155.02 25.19,-281.43 272.66,-503.45 141.62,-127.06 320.44,-202.1 574,-202.1zm-988.04 1070.75c-173.87,109.49 -86.45,302.04 -12.21,341.49 13.27,7.05 2.08,52.03 6.08,75.82 9.33,55.59 -16.02,416.93 323.9,416.93l1340.55 0c339.92,0 314.56,-387.19 323.9,-442.78 0,0 94.93,-87.03 97.04,-197.3 1.81,-94.76 -89.11,-189.34 -89.11,-189.34 122.06,-108.85 73.34,-244.56 6.88,-288.48 0,0 -60.22,-460.61 -231.22,-612.36 -58.18,-72.68 -178.93,-171.91 -270.95,-222.94 -233.35,-129.43 -780.28,-129.43 -1013.64,0 -91.82,50.93 -213.09,150.39 -270.88,223 -74.74,93.92 -139.67,178.55 -176.48,317.41 -20.57,77.63 -19.15,122.54 -38.68,208.26 -8.19,35.94 -6.58,90.81 -20.49,100.94 -85.07,61.96 -83.19,202.37 25.31,269.35z"/>
  <path class="fil0" d="M-17237.01 12488.25l776.1 0c133.49,0 139.18,141.11 0,141.11l-776.1 0c-133.5,0 -139.17,-141.11 0,-141.11zm-89.47 274.94c0,0 869.35,7.54 869.35,7.54 335.14,-2.49 341.45,-418.15 -7.35,-424.29 0,0 -785.48,-1.18 -785.48,-1.18 -40.84,6.33 -77.63,15.04 -109.29,26.78 -179.93,66.74 -164.62,335.52 32.77,391.15z"/>
 </g>
</svg>
